# xmcd
#
# Track frame offsets: 
#        150
#        13401
#        26170
#        40634
#        54393
#        67328
#        79365
#        91424
#        110938
#        123491
#        133778
#        146694
#        163158
#
# Disc length: 2303 seconds
#
# Revision: 1
# Processed by: cddbd v1.5.1PL0 Copyright (c) Steve Scherf et al.
# Submitted via: ExactAudioCopy v0.95a5
#
DISCID=c708fd0d
DTITLE=Various Artist - Της θάλασσας οι δρόμοι
DYEAR=2000
DGENRE=Ελληνικά ελαφρά
TTITLE0=Ξυδάκης Νίκος, Μελίνα Κανά - Η φρεγάδα
TTITLE1=Ξυδάκης Νίκος, Μελίνα Κανά - Του πειρατή το χάδι
TTITLE2=Αρβανιτάκη Ελευθερία - Ακρωτήριο Ταίναρον
TTITLE3=Σαμαρά Κερασία - Το ινάτι της γυναίκας
TTITLE4=Ξυδάκης Νίκος, Δώρα Μασκλαβάνου - Ίμβρος
TTITLE5=Ξυδάκης Νίκος - Τα ρόδα του ανέμου
TTITLE6=Ξυδάκης Νίκος - Ημουν θαλασσινό πουλί
TTITLE7=Ξυδάκης Νίκος - Βουνό είναι κι' η θάλασσα
TTITLE8=Ξυδάκης Νίκος - Μελτεμάκι (Ορχ.)
TTITLE9=Κανά Μελίνα - Τα μαύρα μάτια
TTITLE10=Μασκλαβάνου Δώρα - Στ' αγύριστο το πέλαγος
TTITLE11=Ξυδάκης Νίκος - Αποχαιρετισμός (Ορχ.)
TTITLE12=Ξυδάκης Νίκος - Μια ώρα καθε νύχτα κοιμάται το νερό
EXTD=YEAR: 2000
EXTT0=
EXTT1=
EXTT2=
EXTT3=
EXTT4=
EXTT5=
EXTT6=
EXTT7=
EXTT8=
EXTT9=
EXTT10=
EXTT11=
EXTT12=
PLAYORDER=
